<?xml version="1.0" encoding="UTF-8" standalone="no"?><!-- Generator: Gravit.io --><svg xmlns="http://www.w3.org/2000/svg" xmlns:xlink="http://www.w3.org/1999/xlink" style="isolation:isolate" viewBox="0 0 330 307" width="330pt" height="307pt"><defs><clipPath id="_clipPath_fBZpRIuc1hwqOeF4qcWCZt09fyKmoMOz"><rect width="330" height="307"/></clipPath></defs><g clip-path="url(#_clipPath_fBZpRIuc1hwqOeF4qcWCZt09fyKmoMOz)"><g><g><g><mask id="_mask_KwKL7QkU9PviOHDw89rRVTmmKl0oJCBD" x="-200%" y="-200%" width="400%" height="400%"><rect x="-200%" y="-200%" width="400%" height="400%" style="fill:white;"/><path d=" M 204.091 187.094 C 240.438 192.272 261.315 205.408 265.763 210.194 C 270.211 214.981 285.145 233.023 292.502 257.131 C 296.449 270.062 299.559 286.464 301.834 306.337 C 292.104 304.285 282.1 303.468 271.821 303.886 C 238.639 305.235 209.318 301.521 189.287 278.246 C 175.934 262.729 163.655 232.929 152.448 188.847 C 172.128 185.578 189.342 184.993 204.091 187.094 Z " fill="black" stroke="none"/></mask><path d=" M 204.091 187.094 C 240.438 192.272 261.315 205.408 265.763 210.194 C 270.211 214.981 285.145 233.023 292.502 257.131 C 296.449 270.062 299.559 286.464 301.834 306.337 C 292.104 304.285 282.1 303.468 271.821 303.886 C 238.639 305.235 209.318 301.521 189.287 278.246 C 175.934 262.729 163.655 232.929 152.448 188.847 C 172.128 185.578 189.342 184.993 204.091 187.094 Z " fill="rgb(233,233,240)"/><path d=" M 204.091 187.094 C 240.438 192.272 261.315 205.408 265.763 210.194 C 270.211 214.981 285.145 233.023 292.502 257.131 C 296.449 270.062 299.559 286.464 301.834 306.337 C 292.104 304.285 282.1 303.468 271.821 303.886 C 238.639 305.235 209.318 301.521 189.287 278.246 C 175.934 262.729 163.655 232.929 152.448 188.847 C 172.128 185.578 189.342 184.993 204.091 187.094 Z " fill="rgb(233,233,240)" mask="url(#_mask_KwKL7QkU9PviOHDw89rRVTmmKl0oJCBD)" vector-effect="non-scaling-stroke" stroke-width="1.835" stroke="rgb(70,73,111)" stroke-linejoin="miter" stroke-linecap="round" stroke-miterlimit="1"/><clipPath id="_clipPath_7adbtJzIRPG51CW4aUd2d98r5BIA1Cgw"><path d=" M 204.091 187.094 C 240.438 192.272 261.315 205.408 265.763 210.194 C 270.211 214.981 285.145 233.023 292.502 257.131 C 296.449 270.062 299.559 286.464 301.834 306.337 C 292.104 304.285 282.1 303.468 271.821 303.886 C 238.639 305.235 209.318 301.521 189.287 278.246 C 175.934 262.729 163.655 232.929 152.448 188.847 C 172.128 185.578 189.342 184.993 204.091 187.094 Z " fill-rule="evenodd" fill="rgb(255,255,255)"/></clipPath><g clip-path="url(#_clipPath_7adbtJzIRPG51CW4aUd2d98r5BIA1Cgw)"><g><path d=" M 270.269 280.315 C 223.378 248.233 209.358 230.197 165.016 188.627" fill-rule="evenodd" fill="rgb(70,73,111)"/></g></g></g><g><mask id="_mask_sKpvspYLLpdmVLiDeUaBCJE4VtarShYp" x="-200%" y="-200%" width="400%" height="400%"><rect x="-200%" y="-200%" width="400%" height="400%" style="fill:white;"/><path d=" M 182.141 144.037 C 200.364 112.165 220.276 97.608 226.367 95.239 C 232.456 92.871 254.735 85.647 279.857 87.704 C 293.331 88.807 309.724 91.967 329.034 97.185 C 323.538 105.472 319.087 114.469 315.683 124.176 C 304.694 155.514 290.424 181.397 261.401 191.427 C 242.052 198.113 209.824 198.531 164.718 192.683 C 168.94 173.184 174.747 156.97 182.141 144.037 Z " fill="black" stroke="none"/></mask><path d=" M 182.141 144.037 C 200.364 112.165 220.276 97.608 226.367 95.239 C 232.456 92.871 254.735 85.647 279.857 87.704 C 293.331 88.807 309.724 91.967 329.034 97.185 C 323.538 105.472 319.087 114.469 315.683 124.176 C 304.694 155.514 290.424 181.397 261.401 191.427 C 242.052 198.113 209.824 198.531 164.718 192.683 C 168.94 173.184 174.747 156.97 182.141 144.037 Z " fill="rgb(233,233,240)"/><path d=" M 182.141 144.037 C 200.364 112.165 220.276 97.608 226.367 95.239 C 232.456 92.871 254.735 85.647 279.857 87.704 C 293.331 88.807 309.724 91.967 329.034 97.185 C 323.538 105.472 319.087 114.469 315.683 124.176 C 304.694 155.514 290.424 181.397 261.401 191.427 C 242.052 198.113 209.824 198.531 164.718 192.683 C 168.94 173.184 174.747 156.97 182.141 144.037 Z " fill="rgb(233,233,240)" mask="url(#_mask_sKpvspYLLpdmVLiDeUaBCJE4VtarShYp)" vector-effect="non-scaling-stroke" stroke-width="1.835" stroke="rgb(70,73,111)" stroke-linejoin="miter" stroke-linecap="round" stroke-miterlimit="1"/><clipPath id="_clipPath_PGveG1EGED52Zxm8Qy2cVG5f9u26yNSW"><path d=" M 182.141 144.037 C 200.364 112.165 220.276 97.608 226.367 95.239 C 232.456 92.871 254.735 85.647 279.857 87.704 C 293.331 88.807 309.724 91.967 329.034 97.185 C 323.538 105.472 319.087 114.469 315.683 124.176 C 304.694 155.514 290.424 181.397 261.401 191.427 C 242.052 198.113 209.824 198.531 164.718 192.683 C 168.94 173.184 174.747 156.97 182.141 144.037 Z " fill-rule="evenodd" fill="rgb(255,255,255)"/></clipPath><g clip-path="url(#_clipPath_PGveG1EGED52Zxm8Qy2cVG5f9u26yNSW)"><g><path d=" M 165.016 188.627 C 206.656 160.253 236.792 138.986 288.657 115.573" fill-rule="evenodd" fill="rgb(70,73,111)"/></g></g></g><g><mask id="_mask_eLQNHBRybySEI9nVVxHfqc7iTqPIuB3v" x="-200%" y="-200%" width="400%" height="400%"><rect x="-200%" y="-200%" width="400%" height="400%" style="fill:white;"/><path d=" M 131.632 150.611 C 113.168 118.878 110.537 94.353 111.536 87.896 C 112.536 81.438 117.439 58.536 131.798 37.821 C 139.5 26.71 150.443 14.103 164.63 0 C 169.05 8.907 174.609 17.264 181.307 25.072 C 202.932 50.276 218.19 75.589 212.339 105.733 C 208.439 125.83 192.664 153.936 165.016 190.052 C 150.251 176.634 139.123 163.488 131.632 150.611 Z " fill="black" stroke="none"/></mask><path d=" M 131.632 150.611 C 113.168 118.878 110.537 94.353 111.536 87.896 C 112.536 81.438 117.439 58.536 131.798 37.821 C 139.5 26.71 150.443 14.103 164.63 0 C 169.05 8.907 174.609 17.264 181.307 25.072 C 202.932 50.276 218.19 75.589 212.339 105.733 C 208.439 125.83 192.664 153.936 165.016 190.052 C 150.251 176.634 139.123 163.488 131.632 150.611 Z " fill="rgb(233,233,240)"/><path d=" M 131.632 150.611 C 113.168 118.878 110.537 94.353 111.536 87.896 C 112.536 81.438 117.439 58.536 131.798 37.821 C 139.5 26.71 150.443 14.103 164.63 0 C 169.05 8.907 174.609 17.264 181.307 25.072 C 202.932 50.276 218.19 75.589 212.339 105.733 C 208.439 125.83 192.664 153.936 165.016 190.052 C 150.251 176.634 139.123 163.488 131.632 150.611 Z " fill="rgb(233,233,240)" mask="url(#_mask_eLQNHBRybySEI9nVVxHfqc7iTqPIuB3v)" vector-effect="non-scaling-stroke" stroke-width="1.835" stroke="rgb(70,73,111)" stroke-linejoin="miter" stroke-linecap="round" stroke-miterlimit="1"/><clipPath id="_clipPath_u1YTweZdPGgT0WDUAWpBOF63ZpcrrFSB"><path d=" M 131.632 150.611 C 113.168 118.878 110.537 94.353 111.536 87.896 C 112.536 81.438 117.439 58.536 131.798 37.821 C 139.5 26.71 150.443 14.103 164.63 0 C 169.05 8.907 174.609 17.264 181.307 25.072 C 202.932 50.276 218.19 75.589 212.339 105.733 C 208.439 125.83 192.664 153.936 165.016 190.052 C 150.251 176.634 139.123 163.488 131.632 150.611 Z " fill-rule="evenodd" fill="rgb(255,255,255)"/></clipPath><g clip-path="url(#_clipPath_u1YTweZdPGgT0WDUAWpBOF63ZpcrrFSB)"><g><path d=" M 165.106 188.626 C 159.35 139.508 155.373 92.358 160.889 42.098" fill-rule="evenodd" fill="rgb(70,73,111)"/></g></g></g><g><mask id="_mask_iImzSaWmIN6fYRLXWbGhnUlKgad8tWyG" x="-200%" y="-200%" width="400%" height="400%"><rect x="-200%" y="-200%" width="400%" height="400%" style="fill:white;"/><path d=" M 113.846 201.594 C 77.132 201.687 54.586 191.683 49.497 187.584 C 44.408 183.487 27.038 167.775 16.297 144.973 C 10.535 132.742 5.102 116.956 -0.001 97.616 C 9.923 98.25 19.941 97.623 30.053 95.733 C 62.698 89.635 92.249 89.102 115.413 109.261 C 130.854 122.701 147.284 150.428 164.702 192.445 C 145.694 198.506 128.743 201.556 113.846 201.594 Z " fill="black" stroke="none"/></mask><path d=" M 113.846 201.594 C 77.132 201.687 54.586 191.683 49.497 187.584 C 44.408 183.487 27.038 167.775 16.297 144.973 C 10.535 132.742 5.102 116.956 -0.001 97.616 C 9.923 98.25 19.941 97.623 30.053 95.733 C 62.698 89.635 92.249 89.102 115.413 109.261 C 130.854 122.701 147.284 150.428 164.702 192.445 C 145.694 198.506 128.743 201.556 113.846 201.594 Z " fill="rgb(233,233,240)"/><path d=" M 113.846 201.594 C 77.132 201.687 54.586 191.683 49.497 187.584 C 44.408 183.487 27.038 167.775 16.297 144.973 C 10.535 132.742 5.102 116.956 -0.001 97.616 C 9.923 98.25 19.941 97.623 30.053 95.733 C 62.698 89.635 92.249 89.102 115.413 109.261 C 130.854 122.701 147.284 150.428 164.702 192.445 C 145.694 198.506 128.743 201.556 113.846 201.594 Z " fill="rgb(233,233,240)" mask="url(#_mask_iImzSaWmIN6fYRLXWbGhnUlKgad8tWyG)" vector-effect="non-scaling-stroke" stroke-width="1.835" stroke="rgb(70,73,111)" stroke-linejoin="miter" stroke-linecap="round" stroke-miterlimit="1"/><clipPath id="_clipPath_GzfpN0l6qhw6YcwUX2rmagi5Bh566Om0"><path d=" M 113.846 201.594 C 77.132 201.687 54.586 191.683 49.497 187.584 C 44.408 183.487 27.038 167.775 16.297 144.973 C 10.535 132.742 5.102 116.956 -0.001 97.616 C 9.923 98.25 19.941 97.623 30.053 95.733 C 62.698 89.635 92.249 89.102 115.413 109.261 C 130.854 122.701 147.284 150.428 164.702 192.445 C 145.694 198.506 128.743 201.556 113.846 201.594 Z " fill-rule="evenodd" fill="rgb(255,255,255)"/></clipPath><g clip-path="url(#_clipPath_GzfpN0l6qhw6YcwUX2rmagi5Bh566Om0)"><g><path d=" M 36.414 120.749 C 78.872 148.403 115.471 170.095 163.414 188.626" fill-rule="evenodd" fill="rgb(70,73,111)"/></g></g></g><g><mask id="_mask_u5sULjcHbUpDeN4mwoFt06OVZm6gCXDG" x="-200%" y="-200%" width="400%" height="400%"><rect x="-200%" y="-200%" width="400%" height="400%" style="fill:white;"/><path d=" M 159.477 242.664 C 143.648 275.79 124.86 291.772 118.961 294.582 C 113.061 297.391 91.374 306.234 66.169 306.031 C 52.65 305.922 36.069 303.975 16.428 300.191 C 21.3 291.523 25.077 282.223 27.758 272.292 C 36.412 240.229 48.74 213.368 76.948 201.231 C 95.752 193.14 127.862 190.352 173.276 192.869 C 170.5 212.624 165.9 229.222 159.477 242.664 Z " fill="black" stroke="none"/></mask><path d=" M 159.477 242.664 C 143.648 275.79 124.86 291.772 118.961 294.582 C 113.061 297.391 91.374 306.234 66.169 306.031 C 52.65 305.922 36.069 303.975 16.428 300.191 C 21.3 291.523 25.077 282.223 27.758 272.292 C 36.412 240.229 48.74 213.368 76.948 201.231 C 95.752 193.14 127.862 190.352 173.276 192.869 C 170.5 212.624 165.9 229.222 159.477 242.664 Z " fill="rgb(233,233,240)"/><path d=" M 159.477 242.664 C 143.648 275.79 124.86 291.772 118.961 294.582 C 113.061 297.391 91.374 306.234 66.169 306.031 C 52.65 305.922 36.069 303.975 16.428 300.191 C 21.3 291.523 25.077 282.223 27.758 272.292 C 36.412 240.229 48.74 213.368 76.948 201.231 C 95.752 193.14 127.862 190.352 173.276 192.869 C 170.5 212.624 165.9 229.222 159.477 242.664 Z " fill="rgb(233,233,240)" mask="url(#_mask_u5sULjcHbUpDeN4mwoFt06OVZm6gCXDG)" vector-effect="non-scaling-stroke" stroke-width="1.835" stroke="rgb(70,73,111)" stroke-linejoin="miter" stroke-linecap="round" stroke-miterlimit="1"/><clipPath id="_clipPath_jaTjvp6AUnbxJYe9JTSxe0qNWRj3x4A1"><path d=" M 159.477 242.664 C 143.648 275.79 124.86 291.772 118.961 294.582 C 113.061 297.391 91.374 306.234 66.169 306.031 C 52.65 305.922 36.069 303.975 16.428 300.191 C 21.3 291.523 25.077 282.223 27.758 272.292 C 36.412 240.229 48.74 213.368 76.948 201.231 C 95.752 193.14 127.862 190.352 173.276 192.869 C 170.5 212.624 165.9 229.222 159.477 242.664 Z " fill-rule="evenodd" fill="rgb(255,255,255)"/></clipPath><g clip-path="url(#_clipPath_jaTjvp6AUnbxJYe9JTSxe0qNWRj3x4A1)"><g><path d=" M 51.519 279.282 C 99.598 251.696 126.059 226.621 165.016 188.626" fill-rule="evenodd" fill="rgb(70,73,111)"/></g></g></g></g><g><mask id="_mask_BjTqygsIumawWeCVAJ6opLTiv9P2lBPj" x="-200%" y="-200%" width="400%" height="400%"><rect x="-200%" y="-200%" width="400%" height="400%" style="fill:white;"/><path d=" M 211.793 183.582 C 212.167 192.406 199.034 193.014 198.945 203.791 C 198.868 213.158 197.028 221.399 189.574 226.135 C 182.119 230.871 172.548 225.88 164.123 226.238 C 155.697 226.595 149.44 232.256 141.612 228.169 C 133.783 224.082 133.674 217.542 129.151 210.423 C 124.629 203.305 115.874 198.113 115.5 189.29 C 115.125 180.466 123.908 176.248 127.812 168.772 C 131.715 161.297 130.635 149.833 138.089 145.097 C 145.544 140.361 153.687 146.1 162.114 145.743 C 170.54 145.385 179.716 139.475 187.544 143.562 C 195.373 147.65 194.013 158.119 198.536 165.237 C 203.059 172.355 211.419 174.758 211.793 183.582 Z " fill="black" stroke="none"/></mask><path d=" M 211.793 183.582 C 212.167 192.406 199.034 193.014 198.945 203.791 C 198.868 213.158 197.028 221.399 189.574 226.135 C 182.119 230.871 172.548 225.88 164.123 226.238 C 155.697 226.595 149.44 232.256 141.612 228.169 C 133.783 224.082 133.674 217.542 129.151 210.423 C 124.629 203.305 115.874 198.113 115.5 189.29 C 115.125 180.466 123.908 176.248 127.812 168.772 C 131.715 161.297 130.635 149.833 138.089 145.097 C 145.544 140.361 153.687 146.1 162.114 145.743 C 170.54 145.385 179.716 139.475 187.544 143.562 C 195.373 147.65 194.013 158.119 198.536 165.237 C 203.059 172.355 211.419 174.758 211.793 183.582 Z " fill="rgb(233,233,240)"/><path d=" M 211.793 183.582 C 212.167 192.406 199.034 193.014 198.945 203.791 C 198.868 213.158 197.028 221.399 189.574 226.135 C 182.119 230.871 172.548 225.88 164.123 226.238 C 155.697 226.595 149.44 232.256 141.612 228.169 C 133.783 224.082 133.674 217.542 129.151 210.423 C 124.629 203.305 115.874 198.113 115.5 189.29 C 115.125 180.466 123.908 176.248 127.812 168.772 C 131.715 161.297 130.635 149.833 138.089 145.097 C 145.544 140.361 153.687 146.1 162.114 145.743 C 170.54 145.385 179.716 139.475 187.544 143.562 C 195.373 147.65 194.013 158.119 198.536 165.237 C 203.059 172.355 211.419 174.758 211.793 183.582 Z " fill="rgb(233,233,240)" mask="url(#_mask_BjTqygsIumawWeCVAJ6opLTiv9P2lBPj)" vector-effect="non-scaling-stroke" stroke-width="1.835" stroke="rgb(70,73,111)" stroke-linejoin="miter" stroke-linecap="round" stroke-miterlimit="1"/><mask id="_mask_4ZmcOwvES3xEFogBgAzN1SgBPWbGa4rI" x="-200%" y="-200%" width="400%" height="400%"><rect x="-200%" y="-200%" width="400%" height="400%" style="fill:white;"/><path d=" M 196.776 204.485 C 193.105 211.641 180.471 204.505 176.369 210.48 C 172.176 216.587 171.614 224.01 163.963 223.581 C 156.989 223.19 159.113 210.777 153.326 207.462 C 147.538 204.147 134.674 212.457 131.424 204.874 C 128.043 196.984 141.762 196.756 141.573 188.14 C 141.382 179.523 126.34 174.685 129.812 168.623 C 133.283 162.563 145.89 169.081 151.655 165.727 C 157.42 162.371 158.232 147.761 165.217 147.737 C 172.201 147.713 170.582 162.603 176.369 165.918 C 182.157 169.233 195.68 161.873 199.194 167.909 C 202.707 173.947 184.206 178.903 184.229 185.573 C 184.252 192.243 199.964 198.27 196.776 204.485 Z " fill="black" stroke="none"/></mask><path d=" M 196.776 204.485 C 193.105 211.641 180.471 204.505 176.369 210.48 C 172.176 216.587 171.614 224.01 163.963 223.581 C 156.989 223.19 159.113 210.777 153.326 207.462 C 147.538 204.147 134.674 212.457 131.424 204.874 C 128.043 196.984 141.762 196.756 141.573 188.14 C 141.382 179.523 126.34 174.685 129.812 168.623 C 133.283 162.563 145.89 169.081 151.655 165.727 C 157.42 162.371 158.232 147.761 165.217 147.737 C 172.201 147.713 170.582 162.603 176.369 165.918 C 182.157 169.233 195.68 161.873 199.194 167.909 C 202.707 173.947 184.206 178.903 184.229 185.573 C 184.252 192.243 199.964 198.27 196.776 204.485 Z " fill="rgb(233,233,240)"/><path d=" M 196.776 204.485 C 193.105 211.641 180.471 204.505 176.369 210.48 C 172.176 216.587 171.614 224.01 163.963 223.581 C 156.989 223.19 159.113 210.777 153.326 207.462 C 147.538 204.147 134.674 212.457 131.424 204.874 C 128.043 196.984 141.762 196.756 141.573 188.14 C 141.382 179.523 126.34 174.685 129.812 168.623 C 133.283 162.563 145.89 169.081 151.655 165.727 C 157.42 162.371 158.232 147.761 165.217 147.737 C 172.201 147.713 170.582 162.603 176.369 165.918 C 182.157 169.233 195.68 161.873 199.194 167.909 C 202.707 173.947 184.206 178.903 184.229 185.573 C 184.252 192.243 199.964 198.27 196.776 204.485 Z " fill="rgb(233,233,240)" mask="url(#_mask_4ZmcOwvES3xEFogBgAzN1SgBPWbGa4rI)" vector-effect="non-scaling-stroke" stroke-width="1.835" stroke="rgb(70,73,111)" stroke-linejoin="miter" stroke-linecap="round" stroke-miterlimit="1"/></g></g></g></svg>